<svg xmlns="http://www.w3.org/2000/svg" xmlns:xlink="http://www.w3.org/1999/xlink" id="Layer_1" x="0px" y="0px" viewBox="0 0 113.7 70" style="enable-background:new 0 0 113.7 70;" xml:space="preserve"><style type="text/css">	.st0{fill:#0000FF;}</style><g id="logo" transform="translate(-1059 -87.5)">	<path id="Path_2" class="st0" d="M1086.4,142.7c2-0.1,3.6-1.5,3.9-3.5c0.2-1.7-1-3.2-2.6-3.4c-0.2,0-0.3,0-0.5,0  c-2,0.1-3.6,1.5-3.9,3.5c-0.2,1.7,1,3.2,2.6,3.4C1086,142.7,1086.1,142.7,1086.4,142.7L1086.4,142.7z M1095,142.7  c2-0.1,3.6-1.5,3.9-3.5c0.2-1.7-1-3.2-2.6-3.4c-0.2,0-0.3,0-0.5,0c-2,0.1-3.6,1.5-3.9,3.5c-0.2,1.7,1,3.2,2.6,3.4  C1094.6,142.7,1094.8,142.7,1095,142.7L1095,142.7z M1141.2,139.5c2-0.1,3.6-1.5,3.9-3.5c0.2-1.7-1-3.2-2.6-3.4c-0.2,0-0.3,0-0.5,0  c-2,0.1-3.6,1.5-3.9,3.5c-0.2,1.7,1,3.2,2.6,3.4C1140.9,139.5,1141.1,139.5,1141.2,139.5L1141.2,139.5z M1139.5,110.9l-1.4,12h-5.3  l2.2-19.6h-7.8l-2.2,19.6h-12.4l1.6-14.3h-12c-4.3,0.1-7.9,3.4-8.5,7.6l-0.7,6.6c0,0-0.2,1.6-2.5,1.6c-3.3,0-6.7-3.2-6.7-3.2  l-1,8.9c3,2.2,6.6,3.4,10.3,3.4c6,0,7.3-3.7,7.7-6.1c0.1-1,1-8.7,1-8.7c0.2-1,1-1.8,2-1.8h1.8l-1.5,13.6h41.2l2.2-19.9  L1139.5,110.9z M1139.7,105l9.1-1.3v-1.5l-9.1,1.3V105z"></path></g></svg>